<svg xmlns="http://www.w3.org/2000/svg" version="1.1" xmlns:xlink="http://www.w3.org/1999/xlink" xmlns:svgjs="http://svgjs.com/svgjs" width="100%" height="100%" viewBox="0 0 1000 600"><rect width="1000" height="600" x="0" y="0" fill="#ff8d1e"/><g><circle r="166.66666666666666" cx="350.8849436442057" cy="373.1071611512515" fill="#0c5460" transform="matrix(0.6785427102546424,0,0,0.6785427102546423,0,46.83081514914659)"/><path d="M310.1601032074372 448.1071661910025L310.1601032074372 448.1071661910025Q307.2126567175032 448.1071661910025 304.57107731614724 445.7714538782246Q301.92949791479134 443.40793546648507 302.3187833002543 440.2936523827812L302.3187833002543 440.2936523827812Q305.4608724829198 409.0117910509346 305.4608724829198 377.7299297190879Q305.4608724829198 346.44806838724134 305.2662297901883 314.9715643626632L305.2662297901883 314.9715643626632Q303.7090882483364 312.60804595092367 303.5978638524898 309.5771811641048Q303.4866394566433 306.54631637728585 305.6555151756513 304.4052467572394L305.6555151756513 304.4052467572394Q306.8233713320402 300.873872189111 310.3547459001687 299.9006587254535Q313.8583143693355 298.92744526179604 317.000403552001 300.48458680364797L317.000403552001 300.48458680364797Q326.1764162093427 298.5381598763331 335.5748776583775 298.2600988867167Q344.94553300845064 297.9542317981386 354.34399445748545 298.2600988867167Q363.71464980755866 298.5381598763331 373.1965295534784 298.8440269649111Q382.6784092993981 299.1220879545276 392.0768707484329 298.5381598763331L392.0768707484329 298.5381598763331Q395.7750819103312 298.34351718360165 397.6380905407612 300.59581119949456Q399.5010991711912 302.8481052153875 399.5010991711912 305.7677456063599Q399.5010991711912 308.7151920962939 397.6380905407612 311.3567714976498Q395.7750819103312 313.99835089900574 392.0768707484329 314.1929935917372L392.0768707484329 314.1929935917372Q383.26233737759253 314.7769216699317 374.28096741298236 314.38763628446867Q365.27179134941053 313.99835089900574 356.29042138480037 313.69248381042763Q347.28124532122854 313.38661672184963 338.49451804934984 313.5812594145811Q329.70779077747113 313.8037082062743 320.8932574066308 315.5554924408577L320.8932574066308 315.5554924408577Q320.8932574066308 329.0414504372538 321.00448180247736 342.33276574091843Q321.0879000993623 355.62408104458297 321.0879000993623 369.1100390409791L321.0879000993623 369.1100390409791Q327.14962967300016 369.1100390409791 333.40600193936945 368.9153963482476Q339.6623742057388 368.72075365551615 345.83532817522314 368.72075365551615Q351.98047604574595 368.72075365551615 358.15343001523036 369.2212634368256Q364.2985778857531 369.6939671191736 370.3603074593909 371.08427206725565L370.3603074593909 371.08427206725565Q374.0863247202509 372.0574855309131 375.2541808766398 374.7824832291539Q376.4220370330288 377.53528702635646 375.64346626210283 380.37150912044393Q374.86489549117687 383.2077312145313 372.41795878255243 385.15415814184627Q369.97102207392794 387.1005850691611 366.2728109120296 386.1273716055037L366.2728109120296 386.1273716055037Q355.1225652284114 383.59701659999433 343.66645245621515 384.1809446781887Q332.2381457829805 384.7648727563832 320.8932574066308 384.7648727563832L320.8932574066308 384.7648727563832Q320.5039720211678 398.64011613824226 319.92004394297334 412.4319412232165Q319.3361158647789 426.195960209229 317.9736170156584 440.2936523827812L317.9736170156584 440.2936523827812Q317.5843316301955 443.40793546648507 315.526680307034 445.7714538782246Q313.46902898387253 448.1071661910025 310.1601032074372 448.1071661910025Z " fill="white" transform="matrix(0.6785427102546424,0,0,0.6785427102546423,0,46.83081514914659)"/><path d="M606.1336421800122 324.137037497941L606.1336421800122 324.137037497941Q604.0416345264518 324.398538454636 602.4726287862813 322.6801035963543Q600.8849444063471 320.9803473778364 600.8849444063471 318.86966108451196L600.8849444063471 318.86966108451196Q600.8849444063471 316.6469029526039 602.4726287862813 315.26468361007284Q604.0416345264518 313.8824642675418 606.1336421800122 313.6209633108468L606.1336421800122 313.6209633108468Q612.7085233769167 313.0979613974567 619.1526540954735 313.0979613974567Q625.5781061742664 313.0979613974567 632.1529873711708 313.49021283249925L632.1529873711708 313.49021283249925Q633.9834940680362 312.83646044076164 636.0941803613606 313.7517137891943L636.0941803613606 313.7517137891943Q648.2913321272088 314.66696713762707 660.768663489516 316.908403909299L660.768663489516 316.908403909299Q662.8793497828403 317.3006553443416 663.9253536096206 319.411341637666Q664.9713574364009 321.50334929122647 664.3176050446632 323.3338559880919L664.3176050446632 323.3338559880919Q663.6638526529256 325.57529275976384 661.889381875352 326.43451018890477Q660.1149110977783 327.27504897828175 657.8921529658703 327.0135480215867L657.8921529658703 327.0135480215867Q652.9049561489003 326.09829467315393 648.0298311705137 325.4445422814163Q643.1733848318911 324.79078988967865 638.1861880149211 324.398538454636L638.1861880149211 324.398538454636Q636.3556813180558 333.58842921849106 636.0194658023049 342.778319982346Q635.6832502865541 351.968210746201 636.6171822747508 361.4382811065149L636.6171822747508 361.4382811065149Q637.5324356231835 371.15117378376004 639.2321918417014 380.6772800633658Q640.9506266999831 390.1847077032077 642.7811333968486 399.78552854186916L642.7811333968486 399.78552854186916Q643.1733848318911 402.00828667377715 642.3328460425141 403.78275745135085Q641.4736286133733 405.55722822892443 639.2321918417014 406.21098062066204L639.2321918417014 406.21098062066204Q637.2709346664884 406.86473301239977 635.2349629322197 405.8187291856195Q633.198991197951 404.7727253588393 632.8067397629084 402.6620390655149L632.8067397629084 402.6620390655149Q630.6960534695841 392.033893039837 628.7908322136628 381.59253341179857Q626.8856109577417 371.15117378376004 625.9703576093091 360.5043491183183L625.9703576093091 360.5043491183183Q625.1858547392238 351.1837078761159 625.5781061742664 341.99381711226084Q625.9703576093091 332.8039263484058 627.6887924675908 323.7447860628984L627.6887924675908 323.7447860628984Q616.9112173238016 323.3338559880919 606.1336421800122 324.137037497941ZM663.010100261188 354.3403979962205L663.010100261188 354.3403979962205Q665.513037989555 350.9222069194207 668.9872649856464 348.2885187127062Q672.4614919817379 345.67350914575565 676.4026849719278 344.1605393248771Q680.3438779621176 342.64756950399845 684.5465719090025 342.5915335847067Q688.7492658558874 342.51681902565093 692.9519598027723 344.21657524416884L692.9519598027723 344.21657524416884Q697.0239032713097 345.80425962410317 700.3113438697619 348.4939837501095Q703.598784468214 351.1837078761159 705.4292911650795 355.38640182300077L705.4292911650795 355.38640182300077Q706.8675464269023 358.54309194310537 707.1290473835974 362.22278397660017Q707.4092269800564 365.902476010095 705.1677902083844 368.9097370120881L705.1677902083844 368.9097370120881Q703.2065330331715 371.67417569715025 700.3673797890536 373.112430958973Q697.5469051846998 374.5693648605598 694.3341791453033 375.2231172522974Q691.1214531059069 375.87686964403514 687.759297948399 375.87686964403514Q684.415821430655 375.87686964403514 681.3898817888978 375.7461191656876L681.3898817888978 375.7461191656876Q677.990369351862 375.61536868734 674.6282141943541 375.2231172522974Q671.2847376766101 374.83086581725485 667.8665465998105 374.4386143822123L667.8665465998105 374.4386143822123Q668.9125504265908 380.3410645476151 672.0692405466954 384.93600992954254Q675.2259306668 389.53095531147 680.6053789188127 391.90314256148946L680.6053789188127 391.90314256148946Q682.0623128203995 392.42614447487966 682.8468156904846 392.6876454315747L682.8468156904846 392.6876454315747Q683.2390671255272 392.81839590992223 683.5566040015141 392.8931104689779Q683.8928195172648 392.94914638826975 684.2850709523075 392.94914638826975L684.2850709523075 392.94914638826975Q685.3310747790877 393.0798968666173 686.0595417298811 393.15461142567295Q686.7880086806745 393.2106473449648 687.4417610724121 393.0798968666173L687.4417610724121 393.0798968666173Q688.3570144208448 392.94914638826975 688.6932299365956 392.8931104689779Q689.0107668125825 392.81839590992223 689.403018247625 392.6876454315747L689.403018247625 392.6876454315747Q690.8599521492118 392.29539399653214 691.9619918952839 391.77239208314194Q693.0827102811198 391.24939016975185 694.6703946610542 390.0539572248602L694.6703946610542 390.0539572248602Q695.4548975311393 389.4002048331225 696.7624023146146 388.09270004964725Q698.06990709809 386.7851952661719 699.0038390862866 385.72051279962767L699.0038390862866 385.72051279962767Q700.3113438697619 383.89000610276236 702.216565125683 383.23625371102463Q704.1217863816041 382.582501319287 706.0830435568172 383.7592556244147L706.0830435568172 383.7592556244147Q707.8014784150989 384.805259451195 708.5112667261284 386.9719816638113Q709.2397336769218 389.1387038764274 707.9322288934464 390.9878892130568L707.9322288934464 390.9878892130568Q704.1217863816041 396.10583650837435 698.9291245272308 399.7108139828135Q693.7364626728574 403.33447009701644 687.0495096373695 403.5959710537115L687.0495096373695 403.5959710537115Q681.6513827455929 403.8574720104065 676.6641859286228 401.6907497977904Q671.6769891116528 399.5240275851741 667.8665465998105 395.8443355516793L667.8665465998105 395.8443355516793Q663.1408507395354 391.24939016975185 660.3764120544733 385.1975108862376Q657.6306520091753 379.16431024248726 657.3691510524802 372.85093000227795L657.3691510524802 372.85093000227795Q656.1737181075885 371.9356766538453 655.5946802749065 370.5534573113143Q654.9969638024606 369.17123796878315 655.202428839864 367.7329827069604Q655.3892152375033 366.29472744513754 656.1737181075885 365.04325858095405Q656.9768996174375 363.79178971677055 658.5459053576079 363.399538281728L658.5459053576079 363.399538281728Q659.9841606194308 358.54309194310537 663.010100261188 354.3403979962205ZM694.5209655429427 357.4970881163252L694.5209655429427 357.4970881163252Q693.0827102811198 355.6479027796958 690.0567706393626 354.20964751787295L690.0567706393626 354.20964751787295Q687.5725115507596 353.16364369109266 684.2290350330156 353.16364369109266Q680.8668798755077 353.16364369109266 678.5133712652522 354.3403979962205L678.5133712652522 354.3403979962205Q675.487431623495 355.77865325804333 673.1152443734757 358.33762690570217Q670.76173576322 360.8966005533609 669.3048018616332 364.0532906734656L669.3048018616332 364.0532906734656Q672.4614919817379 364.44554210850816 675.6181821018426 364.83779354355073Q678.7748722219472 365.2300449785933 681.9128837022879 365.36079545694093L681.9128837022879 365.36079545694093Q683.6313185605698 365.36079545694093 685.3310747790877 365.36079545694093Q687.0495096373695 365.36079545694093 688.7492658558874 365.2300449785933L688.7492658558874 365.2300449785933Q689.2722677692775 365.2300449785933 689.7392337633759 365.17400905930157Q690.1875211177103 365.0992945002458 690.7292016708643 365.0992945002458L690.7292016708643 365.0992945002458Q691.9059559759921 364.83779354355073 692.4849938086741 364.781757624259Q693.0827102811198 364.7070430652032 693.7364626728574 364.44554210850816L693.7364626728574 364.44554210850816Q694.2594645862475 364.31479163016064 695.0626460960967 364.0532906734656L695.0626460960967 364.0532906734656Q695.7163984878343 363.79178971677055 695.847148966182 363.66103923842303Q695.9778994445294 363.5302887600755 696.2394004012245 363.399538281728L696.2394004012245 363.399538281728L696.6316518362671 361.8305325415576Q696.3701508795721 361.3075306281674 696.2954363205163 360.84056463406915Q696.2394004012245 360.3735986399708 695.9778994445294 359.9813472049282L695.9778994445294 359.9813472049282Q695.847148966182 359.58909576988566 695.3801829720835 358.8045928998004Q694.9318956177492 358.0200900297153 694.5209655429427 357.4970881163252ZM720.017308820711 402.6620390655149L720.017308820711 402.6620390655149Q718.1681234840817 402.00828667377715 716.9166546198982 400.10306541785604Q715.6838643954786 398.19784416193494 716.4683672655638 396.236586986722L716.4683672655638 396.236586986722Q718.6911253974719 390.0539572248602 719.475628267557 383.7592556244147Q720.2788097774061 377.4458753842055 720.5403107341011 370.889672827065L720.5403107341011 370.889672827065Q720.6710612124486 368.9097370120881 720.6710612124486 367.004515756167Q720.6710612124486 365.0992945002458 720.8018116907963 363.1380373250328L720.8018116907963 363.1380373250328Q720.4095602557536 361.56903158486256 721.0633126474913 360.11209768327575L721.0633126474913 360.11209768327575Q721.3248136041864 356.3016551714334 721.5863145608814 352.43517674029937Q721.8478155175765 348.55001966940125 722.3708174309666 344.7582557973229L722.3708174309666 344.7582557973229Q723.0245698227043 338.96787747050377 723.7530367734977 333.2522137027402Q724.4815037242911 327.5365499349768 724.7430046809861 321.634099769574L724.7430046809861 321.634099769574Q725.0045056376812 316.2546515175613 725.322042513668 310.9312391848405Q725.6582580294188 305.6078268521196 728.0117666396743 300.751380513497L728.0117666396743 300.751380513497Q729.2071995845661 298.528622381589 731.168456759779 298.1924068658382Q733.1483925747559 297.85619135008744 734.8481487932738 298.8461592575759Q736.5479050117916 299.83612716506434 737.4071224409327 301.7973843402773Q738.2663398700735 303.7773201552542 737.0895855649458 306.0000782871622L737.0895855649458 306.0000782871622Q736.0249030984015 308.2415150588341 735.632651663359 310.59502366908964Q735.2404002283163 312.96721091910916 735.1843643090245 315.47014864747615Q735.1096497499689 317.9544077360792 735.1096497499689 320.4573454644462Q735.1096497499689 322.94160455304933 734.9788992716212 325.3137918030688L734.9788992716212 325.3137918030688Q734.3251468798836 331.2162419684716 733.671394488146 337.06265621458255Q733.0176420964083 342.9090704606935 732.3452110649067 348.83019926586024L732.3452110649067 348.83019926586024Q737.8740884350309 346.0657605807982 744.5610414705188 345.80425962410317L744.5610414705188 345.80425962410317Q749.828417883948 345.67350914575565 755.2639020552524 347.57873040167675Q760.7180648663208 349.48395165759797 764.1362559431205 353.68664560448286L764.1362559431205 353.68664560448286Q766.1161917580973 356.1709046930859 767.2929460632251 359.14080841555125Q768.469700368353 362.09203349825265 769.1981673191464 365.3047595376491Q769.9079556301758 368.51748557704553 770.1694565868709 371.7488902562059Q770.4496361833299 374.96161629560237 770.7111371400249 377.9688772975956L770.7111371400249 377.9688772975956Q771.1033885750675 384.1515070594574 771.0286740160118 390.2594222622634Q770.97263809672 396.3673374650695 770.7111371400249 402.6620390655149L770.7111371400249 402.6620390655149Q770.7111371400249 405.16497679388186 768.992702281743 406.41644565806536Q767.2929460632251 407.66791452224885 765.3130102482482 407.66791452224885Q763.3517530730353 407.66791452224885 761.7640686931011 406.41644565806536Q760.1950629529307 405.16497679388186 760.3258134312782 402.6620390655149L760.3258134312782 402.6620390655149Q760.4565639096257 397.4133412918497 760.5873143879733 392.1646435181846Q760.7180648663208 386.91594574451943 760.4565639096257 381.6485693310904L760.4565639096257 381.6485693310904Q760.1950629529307 379.03355976413974 760.0643124745832 376.2691210790777Q759.9335619962355 373.5046823940157 759.4105600828454 370.7589223487175L759.4105600828454 370.7589223487175Q759.1490591261504 369.4327389254783 758.9435940887472 368.19994870105864Q758.7568076911078 366.94847983687515 758.3645562560653 365.6409750533998L758.3645562560653 365.6409750533998Q758.2338057777177 364.5762925868557 757.7108038643275 363.399538281728L757.7108038643275 363.399538281728Q757.2998737895211 362.22278397660017 757.1691233111735 362.09203349825265L757.1691233111735 362.09203349825265Q756.9076223544785 361.69978206320997 756.7768718761309 361.36356654745924Q756.6461213977834 361.0273510317084 756.3846204410884 360.63509959666584L756.3846204410884 360.63509959666584Q755.2078661359606 359.3275948131905 754.9463651792655 359.196844334843L754.9463651792655 359.196844334843Q754.4233632658754 358.8045928998004 754.0311118308329 358.5991278623972Q753.6388603957903 358.41234146475784 753.2279303209837 358.1508405080628L753.2279303209837 358.1508405080628Q751.7896750591609 357.36633763797755 749.9591683622955 356.8246570848235Q748.1099830256661 356.3016551714334 746.4102268071482 356.3016551714334L746.4102268071482 356.3016551714334Q741.9460319035683 356.0401542147384 738.0608748326703 357.88933955136775Q734.1943964015361 359.7198462482332 731.168456759779 363.5302887600755L731.168456759779 363.5302887600755Q730.906955803084 372.5894290455829 730.2532034113462 381.46178293345105Q729.5994510196086 390.31545818155524 726.4427608995039 398.9823470320201L726.4427608995039 398.9823470320201Q725.7890085077663 400.96228284699697 724.0145377301927 402.1390371521247Q722.240066952619 403.33447009701644 720.017308820711 402.6620390655149ZM783.8422208940697 392.6876454315747L783.8422208940697 392.6876454315747Q783.8422208940697 387.04669622286696 784.6267237641549 381.25631789604773L784.6267237641549 381.25631789604773Q785.5419771125876 374.30786390386476 786.4572304610203 367.39676719120956Q787.391162449217 360.5043491183183 787.2604119708694 353.4251446477878L787.2604119708694 353.4251446477878Q787.2604119708694 350.9222069194207 788.8294177110398 349.6147021359455Q790.3984234512102 348.2885187127062 792.3783592661871 348.2885187127062Q794.3396164414 348.2885187127062 796.0580512996818 349.6147021359455Q797.7578075181997 350.9222069194207 797.7578075181997 353.4251446477878L797.7578075181997 353.4251446477878Q802.8757548135173 353.03289321274514 807.4707001954448 353.03289321274514L807.4707001954448 353.03289321274514Q812.7380766088739 353.16364369109266 816.3990900026047 356.0401542147384Q820.0787820360995 358.93534337814793 821.9279673727289 363.79178971677055L821.9279673727289 363.79178971677055Q823.4969731128992 368.2559846203505 823.7584740695943 372.98168048062547Q824.0199750262893 377.70737634090057 824.150725504637 382.4517508409395L824.150725504637 382.4517508409395Q824.2814759829844 389.1387038764274 824.5429769396794 395.76962099262363Q824.8044778963745 402.40053810881983 824.8044778963745 409.1061697840717L824.8044778963745 409.1061697840717Q824.8044778963745 411.7398579907862 823.1794362369124 412.97264821520577Q821.5357159376863 414.22411707938926 819.6304946817651 414.22411707938926Q817.725273425844 414.22411707938926 816.0815531266179 412.97264821520577Q814.4378328273917 411.7398579907862 814.4378328273917 409.1061697840717L814.4378328273917 409.1061697840717Q814.4378328273917 402.7927895438624 814.2323677899885 396.7595889001121Q814.0455813923492 390.72638825636176 813.7840804356541 384.41300801615245L813.7840804356541 384.41300801615245Q813.5225794789591 380.9948169393527 813.5786153982508 377.3898394649137Q813.6533299573066 373.7661833507107 812.999577565569 370.7589223487175L812.999577565569 370.7589223487175Q812.6073261305263 368.9097370120881 812.1963960557198 367.54619630932103Q811.8041446206772 366.16397696679 810.7581407938969 364.83779354355073L810.7581407938969 364.83779354355073Q810.4966398372019 364.31479163016064 809.6374224080611 363.9225401951181Q808.7968836186841 363.5302887600755 808.1431312269464 363.5302887600755L808.1431312269464 363.5302887600755Q806.1631954119695 363.5302887600755 804.4634391934517 363.79178971677055Q802.7450043351698 364.0532906734656 800.9144976383044 364.5762925868557L800.9144976383044 364.5762925868557Q800.1299947682191 364.83779354355073 799.3268132583701 365.0992945002458Q798.5423103882849 365.36079545694093 797.8885579965472 365.77172553174745L797.8885579965472 365.77172553174745Q796.581053213072 370.49742139202243 795.9833367406261 374.75615125819917Q795.3856202681802 379.03355976413974 794.8626183547901 383.36700418937215L794.8626183547901 383.36700418937215Q794.4703669197476 386.52369430947687 794.4143310004557 389.7364203488733Q794.3396164414 392.94914638826975 794.1528300437607 396.10583650837435Q793.9473650063574 399.26252662847907 793.3496485339115 402.40053810881983Q792.7706107012297 405.55722822892443 791.3323554394068 408.452417392334L791.3323554394068 408.452417392334Q790.136922494515 410.6751755242421 788.1756653193022 411.0113910399928Q786.1957295043253 411.3289279159797 784.5520092050992 410.3576386482552Q782.926967545637 409.36767074076675 782.0677501164961 407.4064135655538Q781.2085326873552 405.4264777505769 782.2545365141355 403.18504097890496L782.2545365141355 403.18504097890496Q783.4499694590271 400.83153236864945 783.5807199373746 398.0670936835873Q783.7114704157221 395.3213336382892 783.8422208940697 392.6876454315747ZM851.8698269143133 443.11997279419353L851.8698269143133 443.11997279419353Q852.0005773926608 445.6229105225605 850.4876075717823 446.85570074698006Q848.9746377509036 448.10716961116356 847.0133805756907 448.10716961116356Q845.0334447607138 448.10716961116356 843.3336885421959 446.85570074698006Q841.6152536839141 445.6229105225605 841.4845032055666 443.11997279419353L841.4845032055666 443.11997279419353Q840.0462479437438 422.10650305976895 839.7847469870487 401.16774788440017Q839.5232460303537 380.21031406926755 838.6079926819209 359.196844334843L838.6079926819209 359.196844334843Q836.7588073452915 356.3016551714334 838.3464917252259 353.68664560448286L838.3464917252259 353.68664560448286Q838.2157412468783 352.22971170289605 838.1410266878227 350.9969214784765Q838.0849907685308 349.745452614293 837.9542402901833 348.2885187127062L837.9542402901833 348.2885187127062Q837.8234898118358 345.9350101024507 839.2617450736586 344.6835412382672Q840.7000003354814 343.4320723740837 842.6052215914026 343.3013218957362Q844.5104428473237 343.17057141738866 846.2288777056056 344.29128980322463Q847.9286339241235 345.4120081890606 848.320885359166 347.6347663209686L848.320885359166 347.6347663209686Q850.562322130838 346.5887624941883 852.5982938651067 345.67350914575565Q854.6342655993753 344.7582557973229 856.8570237312833 343.82432380912627L856.8570237312833 343.82432380912627Q858.7062090679126 343.03982093904114 860.9289671998207 342.3300326280117Q863.1704039714926 341.6015656772183 865.5239125817482 341.2093142421757Q867.8960998317677 340.817062807133 870.1935725227314 340.817062807133Q872.4910452136952 340.817062807133 874.452302388908 341.6015656772183L874.452302388908 341.6015656772183Q878.393495379098 343.17057141738866 880.9524690267567 346.32726153749326Q883.5114426744155 349.48395165759797 885.2298775326974 353.2943941694402L885.2298775326974 353.2943941694402Q886.7988832728678 356.95540756317104 888.2558171744545 360.70981415572163Q889.6940724362773 364.44554210850816 889.824822914625 368.386735098698L889.824822914625 368.386735098698Q889.9555733929724 372.4586785672354 888.6480686094972 376.00762012238266Q887.321885186258 379.5565616775298 885.0244124952942 382.4517508409395Q882.7269398043304 385.3282613645851 879.5889283239896 387.56969813625705Q876.4322382038849 389.79245626816504 872.8832966487378 391.38014064809937L872.8832966487378 391.38014064809937Q869.0728541368954 393.0798968666173 865.0009106683581 394.3874016500926Q860.9289671998207 395.7135850733318 856.7262732529358 396.10583650837435L856.7262732529358 396.10583650837435Q854.8957665560704 396.3673374650695 853.2520462568443 395.97508603002683Q851.6083259576183 395.58283459498426 850.1700706957954 394.92908220324665L850.1700706957954 394.92908220324665Q850.4315716524904 407.1262339690948 850.7491085284773 419.0805634180119Q851.0853240442281 431.03489286692894 851.8698269143133 443.11997279419353ZM849.1053882292513 358.93534337814793L849.1053882292513 358.93534337814793Q849.3668891859462 364.96854402189825 849.4976396642938 370.94570874635684Q849.6283901426414 376.9228734708153 849.8898910993364 382.9747527543296L849.8898910993364 382.9747527543296Q850.6930726091855 383.4977546677197 851.4775754792707 383.9460420220541Q852.2620783493559 384.41300801615245 853.1773316977885 384.93600992954254L853.1773316977885 384.93600992954254Q854.2233355245688 385.58976232128015 854.8957665560704 385.66447688033594Q855.549518947808 385.72051279962767 856.9877742096309 385.4590118429326L856.9877742096309 385.4590118429326Q859.8829633730404 384.805259451195 862.7781525364501 384.0767925004016Q865.6546630600957 383.36700418937215 868.2883512668103 382.040820766133L868.2883512668103 382.040820766133Q870.7726103554133 380.86406646100517 873.0140471270854 379.48184711847415Q875.2368052589934 378.1183064157071 877.0859905956227 375.87686964403514L877.0859905956227 375.87686964403514Q878.2627449007505 374.4386143822123 878.9164972924881 372.53339312629106Q879.5889283239896 370.62817187036995 879.3087487275307 368.386735098698L879.3087487275307 368.386735098698Q879.1779982491831 365.77172553174745 878.0759585031111 363.0072868466853Q876.9552401172751 360.2428481616233 875.9092362904948 357.88933955136775L875.9092362904948 357.88933955136775Q875.2368052589934 356.693906606476 874.6577674263115 355.46111638205645Q874.0600509538656 354.20964751787295 873.2755480837803 353.16364369109266L873.2755480837803 353.16364369109266Q872.0987937786526 351.968210746201 871.4450413869149 351.70670978950596L871.4450413869149 351.70670978950596Q867.7653493534201 351.4452088328109 865.0009106683581 352.09896122454853Q862.236471983296 352.75271361628614 859.5467478572897 353.8734320021221Q856.8570237312833 354.9941503879581 854.2233355245688 356.3016551714334Q851.6083259576183 357.6278385946727 849.1053882292513 358.93534337814793ZM909.269286908879 401.7467857170821L909.269286908879 401.7467857170821Q904.805092005299 399.78552854186916 902.2274397178762 396.2926229060137Q899.6684660702175 392.81839590992223 898.697176802493 388.61570196303734Q897.7072088950047 384.41300801615245 898.0994603300471 379.8740985535167Q898.4917117650898 375.35386773064494 899.9299670269127 371.15117378376004L899.9299670269127 371.15117378376004Q901.1253999718042 367.8637331853079 902.6196911529189 364.31479163016064Q904.1326609737976 360.76585007501336 906.2433472671219 357.75858907302023Q908.3353549206824 354.73264943126304 911.2305440840919 352.5659272186469Q914.1257332475016 350.3992050060306 918.0669262376914 349.745452614293L918.0669262376914 349.745452614293Q922.1388697062287 349.0917002225553 926.266849094058 349.27848662019466Q930.413507121651 349.48395165759797 934.4854505901884 350.1377040493356L934.4854505901884 350.1377040493356Q936.3159572870538 350.3992050060306 938.0157135055717 350.9969214784765Q939.7341483638536 351.57595931115844 941.4339045823715 352.22971170289605L941.4339045823715 352.22971170289605Q941.5646550607189 350.2684545276831 943.208375359945 348.96094974420777Q944.8520956591711 347.6347663209686 946.6826023560366 347.6347663209686L946.6826023560366 347.6347663209686Q948.9240391277085 347.6347663209686 950.3062584702395 349.14773614184713Q951.6884778127705 350.6607059627257 951.9499787694656 352.75271361628614L951.9499787694656 352.75271361628614Q952.6037311612033 358.8045928998004 952.5290166021475 364.83779354355073Q952.4729806828558 370.889672827065 952.1367651671051 376.9228734708153Q951.8192282911182 382.9747527543296 951.6137632537149 389.0079533980799Q951.4269768560755 395.0598326815942 951.6884778127705 401.0930333253445L951.6884778127705 401.0930333253445Q951.8192282911182 403.5959710537115 950.175507991892 404.828761278131Q948.531787692666 406.0802301423145 946.5518518776889 406.0802301423145Q944.5905947024761 406.0802301423145 942.94687440325 404.828761278131Q941.3031541040239 403.5959710537115 941.1724036256763 401.0930333253445L941.1724036256763 401.0930333253445Q933.6822690803393 404.2497234454491 925.2768811865694 404.6980107997835Q916.8714932927996 405.16497679388186 909.269286908879 401.7467857170821ZM910.1845402573117 373.2431814373205L910.1845402573117 373.2431814373205Q909.4000373872266 375.61536868734 908.7276063557249 378.64130832909717Q908.0738539639873 381.6485693310904 908.3353549206824 384.41300801615245Q908.5968558773775 387.1774467012145 910.0537897789642 389.47491939217826Q911.492045040787 391.77239208314194 914.7794856392393 392.6876454315747L914.7794856392393 392.6876454315747Q921.4664386747272 394.7796530851352 928.2467849090349 393.8643997367024Q935.0084525035786 392.94914638826975 940.9109026689814 389.1387038764274L940.9109026689814 389.1387038764274Q941.4339045823715 382.71325179763454 941.7701200981222 376.6613725141203Q942.0876569741091 370.62817187036995 941.9569064957616 364.44554210850816L941.9569064957616 364.44554210850816Q939.7341483638536 363.0072868466853 937.4366756728898 361.88656846084933Q935.139202981926 360.76585007501336 932.374764296864 360.3735986399708L932.374764296864 360.3735986399708Q929.610325611802 359.9813472049282 926.528350050753 359.79456080728886Q923.4463744897041 359.58909576988566 920.5511853262944 359.8505967265807L920.5511853262944 359.8505967265807Q920.2896843695994 359.8505967265807 919.1689659837634 360.1868122423314Q918.0669262376914 360.5043491183183 917.9361757593439 360.63509959666584L917.9361757593439 360.63509959666584Q916.6099923361046 361.3075306281674 915.5639885093244 362.74578588999026L915.5639885093244 362.74578588999026Q913.8642322908065 365.0992945002458 912.5380488675673 367.8076972660161Q911.2305440840919 370.49742139202243 910.1845402573117 373.2431814373205ZM966.9115692203759 351.8374602678535L966.9115692203759 351.8374602678535Q967.0423196987233 349.35320117925045 968.7607545570053 348.10173231506684Q970.4605107755231 346.85026345088335 972.4404465905001 346.85026345088335Q974.4017037657129 346.85026345088335 975.9146735865916 348.10173231506684Q977.4276434074701 349.35320117925045 977.2968929291226 351.8374602678535L977.2968929291226 351.8374602678535Q977.2968929291226 352.6219631379386 977.2221783700668 353.48118056707955Q977.166142450775 354.3403979962205 977.166142450775 355.1249008663056L977.166142450775 355.1249008663056Q981.36883639766 353.03289321274514 986.0198176988793 351.5199233918666Q990.6894776398625 350.00695357098806 995.3591375808458 349.6147021359455Q1000.010118882065 349.2224507009029 1004.4182778663532 350.32449044697495Q1008.8077582108774 351.4452088328109 1012.4874502443721 354.6018989529155L1012.4874502443721 354.6018989529155Q1014.3366355810015 356.3016551714334 1014.1311705435982 358.2815909864103Q1013.925705506195 360.2428481616233 1012.5621648034279 361.6250675041543Q1011.1799454608969 363.0072868466853 1009.0692591675725 363.34350236243614Q1006.9772515140119 363.66103923842303 1004.997315699035 362.09203349825265L1004.997315699035 362.09203349825265Q1003.5590604372122 360.8966005533609 1001.7845896596386 360.3735986399708Q1000.010118882065 359.8505967265807 997.9741471477962 359.9253112856364Q995.9381754135275 359.9813472049282 993.902203679259 360.3735986399708Q991.8662319449902 360.76585007501336 990.0357252481248 361.3075306281674L990.0357252481248 361.3075306281674Q983.0685926161777 363.5302887600755 977.0353919724275 367.2099807935702L977.0353919724275 367.2099807935702Q977.2968929291226 373.6354328723632 977.8198948425127 380.07956359092003L977.8198948425127 380.07956359092003Q978.3428967559028 385.4590118429326 978.7351481909454 391.17467561069617Q979.127399625988 396.8903393784596 980.9765849626174 402.00828667377715L980.9765849626174 402.00828667377715Q981.7610878327025 404.3804739237966 980.6403694468665 406.0241942230228Q979.5196510610306 407.66791452224885 977.6144298051095 408.19091643563894Q975.7092085491884 408.71391834902914 973.6732368149196 407.9294154789439Q971.6372650806509 407.1262339690948 970.8527622105657 404.7727253588393L970.8527622105657 404.7727253588393Q969.8067583837856 401.7467857170821 969.4145069487429 398.5900955969775Q969.0222555137003 395.45208411663674 968.6300040786577 392.29539399653214L968.6300040786577 392.29539399653214Q968.3685031219626 389.26945435477495 968.0322876062119 386.18747879372603Q967.696072090461 383.1055032326771 967.434571133766 380.07956359092003L967.434571133766 380.07956359092003Q966.7808187420284 372.98168048062547 966.594032344389 365.9585119293867Q966.3885673069858 358.93534337814793 966.9115692203759 351.8374602678535ZM1029.5597269886068 401.7467857170821L1029.5597269886068 401.7467857170821Q1025.095532085027 399.78552854186916 1022.5365584373681 396.2926229060137Q1019.9775847897092 392.81839590992223 1018.9876168822207 388.61570196303734Q1017.9976489747323 384.41300801615245 1018.4085790495388 379.8740985535167Q1018.8008304845814 375.35386773064494 1020.2390857464043 371.15117378376004L1020.2390857464043 371.15117378376004Q1021.4158400515321 367.8637331853079 1022.9288098724106 364.31479163016064Q1024.4417796932892 360.76585007501336 1026.5337873468497 357.75858907302023Q1028.644473640174 354.73264943126304 1031.5396628035837 352.5659272186469Q1034.4161733272294 350.3992050060306 1038.357366317419 349.745452614293L1038.357366317419 349.745452614293Q1042.4293097859565 349.0917002225553 1046.5759678135496 349.27848662019466Q1050.703947201379 349.48395165759797 1054.7758906699162 350.1377040493356L1054.7758906699162 350.1377040493356Q1056.6250760065454 350.3992050060306 1058.3248322250633 350.9969214784765Q1060.0245884435813 351.57595931115844 1061.743023301863 352.22971170289605L1061.743023301863 352.22971170289605Q1061.8737737802107 350.2684545276831 1063.5174940794368 348.96094974420777Q1065.1612143786629 347.6347663209686 1066.9917210755284 347.6347663209686L1066.9917210755284 347.6347663209686Q1069.2331578472003 347.6347663209686 1070.5966985499672 349.14773614184713Q1071.9789178924984 350.6607059627257 1072.2404188491935 352.75271361628614L1072.2404188491935 352.75271361628614Q1072.912849880695 358.8045928998004 1072.8381353216391 364.83779354355073Q1072.7634207625836 370.889672827065 1072.4458838865967 376.9228734708153Q1072.1096683708458 382.9747527543296 1071.9228819732066 389.0079533980799Q1071.7174169358034 395.0598326815942 1071.9789178924984 401.0930333253445L1071.9789178924984 401.0930333253445Q1072.1096683708458 403.5959710537115 1070.4659480716198 404.828761278131Q1068.8409064121577 406.0802301423145 1066.8609705971808 406.0802301423145Q1064.8997134219678 406.0802301423145 1063.2559931227418 404.828761278131Q1061.6122728235157 403.5959710537115 1061.481522345168 401.0930333253445L1061.481522345168 401.0930333253445Q1053.991387799831 404.2497234454491 1045.5859999060613 404.6980107997835Q1037.1806120122915 405.16497679388186 1029.5597269886068 401.7467857170821ZM1030.4749803370394 373.2431814373205L1030.4749803370394 373.2431814373205Q1029.6904774669542 375.61536868734 1029.0367250752165 378.64130832909717Q1028.382972683479 381.6485693310904 1028.644473640174 384.41300801615245Q1028.905974596869 387.1774467012145 1030.344229858692 389.47491939217826Q1031.8011637602788 391.77239208314194 1035.088604358731 392.6876454315747L1035.088604358731 392.6876454315747Q1041.7755573942188 394.7796530851352 1048.5372249887625 393.8643997367024Q1055.2988925833063 392.94914638826975 1061.220021388473 389.1387038764274L1061.220021388473 389.1387038764274Q1061.743023301863 382.71325179763454 1062.06056017785 376.6613725141203Q1062.3967756936008 370.62817187036995 1062.2660252152532 364.44554210850816L1062.2660252152532 364.44554210850816Q1060.0245884435813 363.0072868466853 1057.7271157526175 361.88656846084933Q1055.4296430616537 360.76585007501336 1052.6838830163556 360.3735986399708L1052.6838830163556 360.3735986399708Q1049.9194443312936 359.9813472049282 1046.8374687702446 359.79456080728886Q1043.7554932091957 359.58909576988566 1040.8603040457863 359.8505967265807L1040.8603040457863 359.8505967265807Q1040.5988030890912 359.8505967265807 1039.478084703255 360.1868122423314Q1038.357366317419 360.5043491183183 1038.2266158390717 360.63509959666584L1038.2266158390717 360.63509959666584Q1036.9191110555962 361.3075306281674 1035.873107228816 362.74578588999026L1035.873107228816 362.74578588999026Q1034.1546723705342 365.0992945002458 1032.847167587059 367.8076972660161Q1031.5396628035837 370.49742139202243 1030.4749803370394 373.2431814373205ZM1099.4365183454797 357.36633763797755L1099.4365183454797 357.36633763797755Q1104.1622142057547 354.471148474568 1109.616377016823 352.3604621812436Q1115.0705398278915 350.2684545276831 1120.7114890365992 350.3992050060306L1120.7114890365992 350.3992050060306Q1120.1884871232091 339.2293784271988 1119.8522716074583 328.20898096647835Q1119.5347347314714 317.16990486599406 1119.4039842531238 306.0000782871622L1119.4039842531238 306.0000782871622Q1119.4039842531238 303.51581919855914 1120.9729899932943 302.26435033437565Q1122.5419957334648 301.0128814701921 1124.5219315484414 301.0128814701921Q1126.4831887236546 301.0128814701921 1128.1269090228807 302.26435033437565Q1129.7706293221067 303.51581919855914 1129.7706293221067 306.0000782871622L1129.7706293221067 306.0000782871622Q1129.9013798004542 319.0004115628595 1130.4243817138445 332.0754593976125Q1130.9473836272346 345.15050723236544 1131.4703855406246 358.1508405080628Q1132.0120660937787 371.15117378376004 1132.2735670504737 384.20754297874913Q1132.5350680071688 397.28259081350217 1132.142816572126 410.2829240891994L1132.142816572126 410.2829240891994Q1132.0120660937787 412.7858618175665 1130.2936312354968 414.09336660104174Q1128.593875016979 415.4008713845171 1126.613939202002 415.4008713845171Q1124.652682026789 415.4008713845171 1123.0649976468549 414.16808116009753Q1121.4959919066844 412.91661229591404 1121.626742385032 410.2829240891994L1121.626742385032 410.2829240891994Q1121.626742385032 409.36767074076675 1121.626742385032 408.452417392334Q1121.626742385032 407.5371640439013 1121.7574928633794 406.6032320557047L1121.7574928633794 406.6032320557047Q1120.449988079904 406.4724815773572 1119.1985192157208 406.41644565806536Q1117.9470503515372 406.3417310990097 1116.7702960464094 406.3417310990097L1116.7702960464094 406.3417310990097Q1115.2012903062391 406.3417310990097 1113.613605926305 406.3417310990097Q1112.0446001861342 406.3417310990097 1110.5876662845476 406.21098062066204L1110.5876662845476 406.21098062066204Q1107.1881538475118 405.949479663967 1103.769962770712 405.55722822892443Q1100.3517716939123 405.16497679388186 1097.0643310954601 403.98822248875405L1097.0643310954601 403.98822248875405Q1093.776890497008 402.6620390655149 1090.9003799733623 400.75681780959366Q1088.0051908099526 398.85159655367255 1086.1746841130873 395.7135850733318L1086.1746841130873 395.7135850733318Q1084.063997819763 392.42614447487966 1082.681778477232 388.61570196303734Q1081.3182377744647 384.805259451195 1081.57973873116 380.73331598265764L1081.57973873116 380.73331598265764Q1081.8412396878548 376.6613725141203 1083.4102454280253 373.2431814373205Q1084.9792511681956 369.8436690002847 1087.4074743375068 366.94847983687515Q1089.8543761465821 364.0532906734656 1092.936351707631 361.69978206320997Q1096.01832726868 359.3275948131905 1099.4365183454797 357.36633763797755ZM1121.888243341727 396.236586986722L1121.888243341727 396.236586986722Q1121.888243341727 378.64130832909717 1121.1037404716417 360.8966005533609L1121.1037404716417 360.8966005533609Q1116.7702960464094 360.63509959666584 1112.4928875404687 362.40957037423954Q1108.234157674292 364.1840411518131 1104.6852161191448 366.42547792348506L1104.6852161191448 366.42547792348506Q1102.7239589439318 367.6022322286129 1100.426486252968 369.1152020494914Q1098.1290135620043 370.62817187036995 1096.2237923060832 372.53339312629106Q1094.318571050162 374.4386143822123 1093.1231381052703 376.6613725141203Q1091.9463838001425 378.9028092857922 1091.9463838001425 381.5178188527428L1091.9463838001425 381.5178188527428Q1092.0771342784901 383.89000610276236 1092.992387626923 386.5797302287686Q1093.9263196151194 389.26945435477495 1095.4953253552899 390.9878892130568L1095.4953253552899 390.9878892130568Q1097.0643310954601 392.6876454315747 1099.044266910437 393.54686286071563Q1101.00552408565 394.3874016500926 1103.246960857322 394.92908220324665L1103.246960857322 394.92908220324665Q1105.8619704242726 395.45208411663674 1108.2901935935838 395.58283459498426Q1110.7370954026592 395.7135850733318 1113.3521049696096 395.8443355516793L1113.3521049696096 395.8443355516793Q1115.4627912629342 395.8443355516793 1117.5547989164945 396.0311219493187Q1119.665485209819 396.236586986722 1121.888243341727 396.236586986722ZM1145.9276527179086 403.98822248875405L1145.9276527179086 403.98822248875405Q1146.9736565446888 397.67484224854473 1148.35587588722 391.56692704573874Q1149.7380952297508 385.4590118429326 1150.3918476214885 379.16431024248726L1150.3918476214885 379.16431024248726Q1150.9148495348786 372.98168048062547 1150.578634019128 367.004515756167Q1150.2610971431411 361.0273510317084 1151.3071009699213 354.86339990961056L1151.3071009699213 354.86339990961056Q1151.5686019266163 352.75271361628614 1153.7353241392325 351.70670978950596Q1155.9020463518486 350.6607059627257 1157.7512316884781 351.1837078761159L1157.7512316884781 351.1837078761159Q1159.9739898203861 351.8374602678535 1160.833207249527 353.68664560448286Q1161.692424678668 355.5171523013483 1161.430923721973 357.6278385946727L1161.430923721973 357.6278385946727Q1160.889243168819 360.63509959666584 1160.9639577278745 363.79178971677055Q1161.0199936471663 366.94847983687515 1161.169422765278 370.10516995697986L1161.169422765278 370.10516995697986Q1161.169422765278 376.1383706007302 1160.3662412554286 382.1715712444805L1160.3662412554286 382.1715712444805Q1159.5817383853437 388.4849514846898 1158.33026952116 394.51815212844014Q1157.0974792967404 400.5700314119544 1156.0327968301963 406.73398253405225L1156.0327968301963 406.73398253405225Q1155.6405453951538 408.84466882737667 1153.5485377415932 409.89067265415684Q1151.437851448269 410.93667648093714 1149.6073447514034 410.41367456754705L1149.6073447514034 410.41367456754705Q1147.3659079797317 409.7599221758093 1146.4506546312987 407.9294154789439Q1145.5354012828661 406.0802301423145 1145.9276527179086 403.98822248875405ZM1152.222354318354 343.5628228524312L1152.222354318354 343.5628228524312Q1151.3071009699213 343.3013218957362 1150.3918476214885 342.72228406305425Q1149.476594273056 342.12456759060836 1149.0843428380133 341.2093142421757L1149.0843428380133 341.2093142421757Q1148.6920914029706 340.14463177563147 1148.4119118065119 339.36012890554633Q1148.1504108498166 338.5756260354611 1148.1504108498166 337.5296222086809L1148.1504108498166 337.5296222086809Q1148.1504108498166 336.3528679035531 1148.5613409246232 335.15743495866144L1148.5613409246232 335.15743495866144Q1149.0843428380133 332.8039263484058 1150.6533485781838 331.7392438818617L1150.6533485781838 331.7392438818617Q1151.1763504915739 330.95474101177655 1152.0916038400064 330.562489576734L1152.0916038400064 330.562489576734Q1153.5485377415932 329.6472362283012 1155.3790444384585 329.57252166924553Q1157.228229775088 329.5164857499537 1158.666485036911 330.562489576734L1158.666485036911 330.562489576734Q1159.3202374286484 331.08549149012407 1159.9739898203861 331.68320796256995Q1160.6277422121238 332.2809244350157 1161.0199936471663 333.1961777834485L1161.0199936471663 333.1961777834485Q1161.3001732436253 333.8499301751861 1161.6177101196122 334.63443304527135Q1161.953925635363 335.4189359153565 1161.8231751570156 336.22211742520557L1161.8231751570156 336.22211742520557Q1161.692424678668 337.13737077363834 1161.5616742003203 337.9218736437235Q1161.430923721973 338.7063765138086 1160.889243168819 339.36012890554633L1160.889243168819 339.36012890554633Q1160.2354907770814 340.29406089374294 1159.8432393420387 340.6863123287855Q1159.450987906996 341.0785637638281 1158.5357345585635 341.7323161555658L1158.5357345585635 341.7323161555658Q1158.0127326451732 342.2553180689559 1156.966728818393 342.51681902565093L1156.966728818393 342.51681902565093Q1154.2022901333307 344.0858247658213 1152.222354318354 343.5628228524312ZM1180.8567090764632 376.1383706007302L1180.8567090764632 376.1383706007302Q1177.4385179996634 373.6354328723632 1176.0002627378406 369.89970491957655Q1174.5620074760177 366.16397696679 1175.8695122594931 361.9612830199051L1175.8695122594931 361.9612830199051Q1177.1770170429684 358.1508405080628 1179.9414557280304 355.1249008663056Q1182.7058944130927 352.09896122454853 1186.2361573284757 350.2684545276831L1186.2361573284757 350.2684545276831Q1190.1773503186655 348.1577682343587 1194.6415452222454 346.98101392923087Q1199.1244187655893 345.80425962410317 1203.719364147517 345.67350914575565Q1208.3143095294445 345.5427586674081 1212.8345403523163 346.53272657489657Q1217.373449814952 347.5040158426211 1221.4453932834892 349.6147021359455L1221.4453932834892 349.6147021359455Q1223.6681514153972 350.7914564410732 1223.9296523720923 352.75271361628614Q1224.2098319685513 354.73264943126304 1223.219864061063 356.43240564978095Q1222.2298961535744 358.1508405080628 1220.2686389783617 358.93534337814793Q1218.2887031633845 359.7198462482332 1216.0659450314765 358.54309194310537L1216.0659450314765 358.54309194310537Q1212.909254911372 356.8246570848235 1208.9680619211822 356.3016551714334Q1205.0268689309924 355.77865325804333 1201.0109613817467 356.2456192521416Q1197.013732472265 356.693906606476 1193.4647909171179 358.2815909864103Q1189.9158493619707 359.8505967265807 1187.562340751715 362.3535344549477L1187.562340751715 362.3535344549477Q1186.9085883599773 363.0072868466853 1186.7031233225741 363.26878780338035Q1186.5163369249349 363.5302887600755 1186.1054068501282 364.44554210850816L1186.1054068501282 364.44554210850816L1185.8439058934332 365.902476010095Q1186.2361573284757 367.0792303152227 1186.5163369249349 367.3407312719177L1186.5163369249349 367.3407312719177Q1189.1313464918853 369.0404874904356 1191.9518210962392 369.507453484534Q1194.790974340357 369.97441947863234 1197.6674848640027 370.10516995697986L1197.6674848640027 370.10516995697986Q1201.7394283325402 370.3666709136749 1206.0168368384807 370.5534573113143Q1210.2755667046574 370.7589223487175 1214.2914742539028 371.67417569715025Q1218.2887031633845 372.5894290455829 1221.7068942401843 374.7001153389073Q1225.125085316984 376.7921229924678 1227.4785939272397 380.86406646100517L1227.4785939272397 380.86406646100517Q1230.112282133954 385.4590118429326 1229.9068170965509 390.3901727406109Q1229.7200306989116 395.3213336382892 1226.0403386654168 399.26252662847907L1226.0403386654168 399.26252662847907Q1222.360646631922 403.18504097890496 1217.5042002932994 404.6980107997835Q1212.6477539546768 406.21098062066204 1207.6605571377067 406.86473301239977L1207.6605571377067 406.86473301239977Q1203.1963622341268 407.4064135655538 1198.3959518147963 407.1262339690948Q1193.5955413954653 406.86473301239977 1189.2060610509411 405.6319427879802Q1184.797902066653 404.3804739237966 1180.9874595548108 401.8215002761379Q1177.1770170429684 399.26252662847907 1174.6927579543653 395.0598326815942L1174.6927579543653 395.0598326815942Q1173.4973250094736 392.94914638826975 1174.3005065193229 391.04392513234865Q1175.0850093894078 389.1387038764274 1176.7287296886338 388.148735968939Q1178.37244998786 387.1774467012145 1180.4084217221289 387.4389476579095Q1182.4443934563974 387.70044861460457 1183.7518982398728 389.79245626816504L1183.7518982398728 389.79245626816504Q1185.582404936738 392.81839590992223 1188.8698455351903 394.3874016500926Q1192.1572861336426 395.97508603002683 1196.0237645647767 396.55412386270876Q1199.9089216356747 397.15184033515465 1203.8501146258645 396.8156248194038Q1207.7913076160544 396.49808794341703 1210.929319096395 395.8443355516793L1210.929319096395 395.8443355516793Q1212.6477539546768 395.45208411663674 1214.4222247322505 394.72361716584334Q1216.1966955098242 393.99515021504993 1217.4294857342438 392.94914638826975Q1218.6809545984274 391.90314256148946 1219.2039565118173 390.52092321895844Q1219.7269584252076 389.1387038764274 1219.07320603347 387.4389476579095L1219.07320603347 387.4389476579095Q1217.7657012499944 384.1515070594574 1214.6837256889455 382.71325179763454Q1211.6017501278966 381.25631789604773 1208.1835590510968 380.9948169393527L1208.1835590510968 380.9948169393527Q1204.7653679742973 380.73331598265764 1201.21642641915 380.73331598265764Q1197.6674848640027 380.73331598265764 1194.1185433088554 380.41577910667075Q1190.5882803934721 380.07956359092003 1187.1700893166726 379.16431024248726Q1183.7518982398728 378.2490568940546 1180.8567090764632 376.1383706007302ZM1243.7663678013892 354.3403979962205L1243.7663678013892 354.3403979962205Q1246.269305529756 350.9222069194207 1249.7435325258475 348.2885187127062Q1253.2177595219391 345.67350914575565 1257.158952512129 344.1605393248771Q1261.1001455023188 342.64756950399845 1265.3028394492037 342.5915335847067Q1269.5055333960886 342.51681902565093 1273.7082273429735 344.21657524416884L1273.7082273429735 344.21657524416884Q1277.7801708115107 345.80425962410317 1281.0676114099629 348.4939837501095Q1284.3550520084152 351.1837078761159 1286.1855587052805 355.38640182300077L1286.1855587052805 355.38640182300077Q1287.6424926068673 358.54309194310537 1287.9039935635624 362.22278397660017Q1288.1654945202577 365.902476010095 1285.9240577485857 368.9097370120881L1285.9240577485857 368.9097370120881Q1283.9628005733725 371.67417569715025 1281.1423259690187 373.112430958973Q1278.3031727249008 374.5693648605598 1275.0904466855045 375.2231172522974Q1271.8777206461082 375.87686964403514 1268.5342441283642 375.87686964403514Q1265.1720889708563 375.87686964403514 1262.164827968863 375.7461191656876L1262.164827968863 375.7461191656876Q1258.7466368920632 375.61536868734 1255.3844817345553 375.2231172522974Q1252.0410052168113 374.83086581725485 1248.6228141400115 374.4386143822123L1248.6228141400115 374.4386143822123Q1249.6874966065557 380.3410645476151 1252.8255080868964 384.93600992954254Q1255.9821982070011 389.53095531147 1261.3616464590136 391.90314256148946L1261.3616464590136 391.90314256148946Q1262.8185803606007 392.42614447487966 1263.603083230686 392.6876454315747L1263.603083230686 392.6876454315747Q1263.9953346657285 392.81839590992223 1264.331550181479 392.8931104689779Q1264.649087057466 392.94914638826975 1265.0413384925087 392.94914638826975L1265.0413384925087 392.94914638826975Q1266.0873423192888 393.0798968666173 1266.8158092700824 393.15461142567295Q1267.5442762208754 393.2106473449648 1268.1980286126131 393.0798968666173L1268.1980286126131 393.0798968666173Q1269.1132819610461 392.94914638826975 1269.4494974767968 392.8931104689779Q1269.7670343527834 392.81839590992223 1270.1592857878263 392.6876454315747L1270.1592857878263 392.6876454315747Q1271.616219689413 392.29539399653214 1272.7369380752489 391.77239208314194Q1273.838977821321 391.24939016975185 1275.4266622012553 390.0539572248602L1275.4266622012553 390.0539572248602Q1276.2111650713405 389.4002048331225 1277.518669854816 388.09270004964725Q1278.8448532780549 386.7851952661719 1279.7601066264879 385.72051279962767L1279.7601066264879 385.72051279962767Q1281.0676114099629 383.89000610276236 1282.9728326658842 383.23625371102463Q1284.8780539218053 382.582501319287 1286.8393110970183 383.7592556244147L1286.8393110970183 383.7592556244147Q1288.5577459553 384.805259451195 1289.2675342663297 386.9719816638113Q1289.996001217123 389.1387038764274 1288.6884964336477 390.9878892130568L1288.6884964336477 390.9878892130568Q1284.8780539218053 396.10583650837435 1279.685392067432 399.7108139828135Q1274.4927302130586 403.33447009701644 1267.8057771775707 403.5959710537115L1267.8057771775707 403.5959710537115Q1262.426328925558 403.8574720104065 1257.420453468824 401.6907497977904Q1252.4332566518538 399.5240275851741 1248.6228141400115 395.8443355516793L1248.6228141400115 395.8443355516793Q1243.8971182797366 391.24939016975185 1241.1513582344382 385.1975108862376Q1238.3869195493764 379.16431024248726 1238.1254185926814 372.85093000227795L1238.1254185926814 372.85093000227795Q1236.9486642875536 371.9356766538453 1236.3509478151077 370.5534573113143Q1235.7532313426618 369.17123796878315 1235.9586963800652 367.7329827069604Q1236.1454827777043 366.29472744513754 1236.9486642875536 365.04325858095405Q1237.7331671576387 363.79178971677055 1239.302172897809 363.399538281728L1239.302172897809 363.399538281728Q1240.7404281596318 358.54309194310537 1243.7663678013892 354.3403979962205ZM1275.295911722908 357.4970881163252L1275.295911722908 357.4970881163252Q1273.838977821321 355.6479027796958 1270.8317168193278 354.20964751787295L1270.8317168193278 354.20964751787295Q1268.3287790909608 353.16364369109266 1264.9853025732168 353.16364369109266Q1261.623147415709 353.16364369109266 1259.2696388054533 354.3403979962205L1259.2696388054533 354.3403979962205Q1256.2436991636962 355.77865325804333 1253.8901905534408 358.33762690570217Q1251.5180033034212 360.8966005533609 1250.0797480415986 364.0532906734656L1250.0797480415986 364.0532906734656Q1253.2177595219391 364.44554210850816 1256.3744496420438 364.83779354355073Q1259.5311397621485 365.2300449785933 1262.687829882253 365.36079545694093L1262.687829882253 365.36079545694093Q1264.387586100771 365.36079545694093 1266.0873423192888 365.36079545694093Q1267.8057771775707 365.36079545694093 1269.5055333960886 365.2300449785933L1269.5055333960886 365.2300449785933Q1270.0285353094787 365.2300449785933 1270.495501303577 365.17400905930157Q1270.9624672976754 365.0992945002458 1271.4854692110655 365.0992945002458L1271.4854692110655 365.0992945002458Q1272.662223516193 364.83779354355073 1273.259939988639 364.781757624259Q1273.838977821321 364.7070430652032 1274.4927302130586 364.44554210850816L1274.4927302130586 364.44554210850816Q1275.0344107662127 364.31479163016064 1275.818913636298 364.0532906734656L1275.818913636298 364.0532906734656Q1276.4726660280357 363.79178971677055 1276.603416506383 363.66103923842303Q1276.7341669847306 363.5302887600755 1276.9956679414256 363.399538281728L1276.9956679414256 363.399538281728L1277.3879193764683 361.8305325415576Q1277.126418419773 361.3075306281674 1277.0703825004814 360.84056463406915Q1276.9956679414256 360.3735986399708 1276.7341669847306 359.9813472049282L1276.7341669847306 359.9813472049282Q1276.603416506383 359.58909576988566 1276.1364505122847 358.8045928998004Q1275.6881631579504 358.0200900297153 1275.295911722908 357.4970881163252Z " fill="#0c5460" transform="matrix(0.6785427102546424,0,0,0.6785427102546423,0,46.83081514914659)"/></g></svg>